HIERARCHY
ROOT Hips
{
	OFFSET 0.000000 0.000000 0.000000 
	CHANNELS 6 Xposition Yposition Zposition Zrotation Yrotation Xrotation
	JOINT LeftUpLeg
	{
		OFFSET 1.363060 -1.794630 0.839290 
		CHANNELS 3 Zrotation Yrotation Xrotation
		JOINT LeftLeg
		{
			OFFSET 2.448110 -6.726130 0.000000 
			CHANNELS 3 Zrotation Yrotation Xrotation
			JOINT LeftFoot
			{
				OFFSET 2.562200 -7.039590 0.000000 
				CHANNELS 3 Zrotation Yrotation Xrotation
				JOINT LeftToeBase
				{
					OFFSET 0.157640 -0.433110 2.322550 
					CHANNELS 3 Zrotation Yrotation Xrotation
					End Site
					{
						OFFSET 0.000000 0.000000 0.000000 
					}
				}
			}
		}
	}
	JOINT RightUpLeg
	{
		OFFSET -1.305520 -1.794630 0.839290 
		CHANNELS 3 Zrotation Yrotation Xrotation
		JOINT RightLeg
		{
			OFFSET -2.542530 -6.985550 0.000000 
			CHANNELS 3 Zrotation Yrotation Xrotation
			JOINT RightFoot
			{
				OFFSET -2.568260 -7.056230 0.000000 
				CHANNELS 3 Zrotation Yrotation Xrotation
				JOINT RightToeBase
				{
					OFFSET -0.164730 -0.452590 2.363150 
					CHANNELS 3 Zrotation Yrotation Xrotation
					End Site
					{
						OFFSET 0.000000 0.000000 0.000000 
					}
				}
			}
		}
	}
	JOINT Spine
	{
		OFFSET 0.028270 2.035590 -0.193380 
		CHANNELS 3 Zrotation Yrotation Xrotation
		JOINT Spine1
		{
			OFFSET 0.056720 2.048850 -0.042750 
			CHANNELS 3 Zrotation Yrotation Xrotation
			JOINT Neck1
			{
				OFFSET -0.054170 1.746240 0.172020 
				CHANNELS 3 Zrotation Yrotation Xrotation
				JOINT Head
				{
					OFFSET 0.104070 1.761360 -0.123970 
					CHANNELS 3 Zrotation Yrotation Xrotation
					End Site
					{
						OFFSET 0.000000 0.000000 0.000000 
					}
				}
			}
			JOINT LeftArm
			{
				OFFSET 3.362410 1.200890 -0.311210 
				CHANNELS 3 Zrotation Yrotation Xrotation
				JOINT LeftForeArm
				{
					OFFSET 4.983000 -0.000000 -0.000000 
					CHANNELS 3 Zrotation Yrotation Xrotation
					JOINT LeftHand
					{
						OFFSET 3.483560 -0.000000 -0.000000 
						CHANNELS 3 Zrotation Yrotation Xrotation
						JOINT LeftHandIndex1
						{
							OFFSET 0.715260 -0.000000 -0.000000 
							CHANNELS 3 Zrotation Yrotation Xrotation
							End Site
							{
								OFFSET 0.000000 0.000000 0.000000 
							}
						}
					}
				}
			}
			JOINT RightArm
			{
				OFFSET -3.136600 1.374050 -0.404650 
				CHANNELS 3 Zrotation Yrotation Xrotation
				JOINT RightForeArm
				{
					OFFSET -5.241900 -0.000000 -0.000000 
					CHANNELS 3 Zrotation Yrotation Xrotation
					JOINT RightHand
					{
						OFFSET -3.444170 -0.000000 -0.000000 
						CHANNELS 3 Zrotation Yrotation Xrotation
						JOINT RightHandIndex1
						{
							OFFSET -0.622530 -0.000000 -0.000000 
							CHANNELS 3 Zrotation Yrotation Xrotation
							End Site
							{
								OFFSET 0.000000 0.000000 0.000000 
							}
						}
					}
				}
			}
		}
	}
}
MOTION
Frames: 13
Frame Time: 0.041667
10.075647 17.841780 50.345640 -177.105423 -5.290031 175.653644 -16.311142 -24.719827 -1.672574 -2.060981 8.711953 24.815602 -3.179633 10.904030 -1.719106 3.647400 -11.675800 -34.594500 24.876174 15.226231 -0.115875 1.933096 -8.141850 25.769831 7.225069 -25.218222 -17.500606 -0.000300 -0.119800 0.329000 3.303680 0.860656 5.199986 -5.402706 -0.223562 -13.855659 14.423194 5.173850 34.400888 3.645400 4.378800 12.436400 -89.420671 6.714062 23.230215 23.284555 -22.742436 -5.476426 1.372166 0.511875 15.796687 -7.125000 0.000000 0.000000 87.792938 -8.218452 44.150610 -21.937267 25.345735 -6.590288 1.173456 0.571211 10.586672 7.125000 0.000000 0.000000 
10.077655 17.858433 50.338908 -177.352784 -4.855769 176.193503 -16.312900 -24.524771 -2.108161 -2.103439 8.666693 24.634039 -3.180505 10.912444 -1.677912 3.519700 -11.492300 -33.958700 24.526799 15.828370 -0.546790 1.929694 -8.211156 25.834470 7.182213 -25.051168 -17.465818 -0.000100 -0.060100 0.165000 3.135680 1.131448 4.921720 -5.343348 -0.073751 -13.577745 14.684872 5.493898 34.202217 3.728000 4.573300 12.282200 -89.417268 6.679884 23.010674 23.055865 -23.064906 -6.039348 2.046120 0.659242 15.089473 -7.125000 0.000000 0.000000 87.880068 -8.218764 43.786007 -21.893582 25.292101 -6.564659 1.172200 0.569138 11.119543 7.125000 0.000000 0.000000 
10.081789 17.857488 50.336191 -177.454951 -4.427006 176.600648 -16.243476 -24.473050 -2.373309 -2.139482 8.630963 24.492238 -3.280759 11.147936 -1.864705 3.406200 -11.325300 -33.384900 24.404311 16.482153 -0.793294 1.929761 -8.269288 25.870605 7.254045 -25.222549 -17.430672 -0.000800 0.178700 -0.491000 3.130301 1.357617 4.700507 -5.276448 0.046566 -13.372615 14.565500 5.828502 34.058786 3.662600 4.738600 12.192200 -89.487728 6.633689 22.606825 23.147191 -23.253601 -6.236979 1.829204 1.044619 14.804180 -7.125000 0.000000 0.000000 87.882396 -8.258500 43.778304 -21.913253 25.313513 -6.572341 1.169794 0.571026 11.179436 7.125000 0.000000 0.000000 
10.088048 17.869653 50.335246 -177.511878 -4.030544 176.834835 -16.180793 -24.386174 -2.472634 -2.181169 8.577642 24.320637 -3.390807 11.402646 -2.027697 3.320100 -11.196000 -32.943700 24.236689 16.457203 -1.163609 1.902285 -8.324894 25.938512 7.224126 -25.013598 -16.971676 -0.001500 0.253200 -0.695800 3.166949 1.565030 4.570817 -5.216249 0.154368 -13.291853 14.486422 6.065187 34.107378 3.644000 4.858300 12.206100 -89.365361 6.673922 22.860543 23.129623 -23.125898 -6.041487 2.086163 0.559557 14.948793 -7.125000 0.000000 0.000000 87.908065 -8.266227 43.705350 -21.899416 25.303993 -6.579718 1.162043 0.579074 11.401277 7.125000 0.000000 0.000000 
10.093363 17.874613 50.333003 -177.623819 -3.671101 177.302535 -16.076894 -24.269879 -2.875161 -2.207024 8.550966 24.196622 -3.422658 11.478104 -1.984642 3.206900 -11.022700 -32.356400 23.977747 16.669912 -1.665923 1.893277 -8.378224 25.958993 7.170136 -24.753308 -16.609670 -0.000100 0.076700 -0.210700 3.150522 1.779093 4.323829 -5.111050 0.272660 -13.071608 14.469830 6.260825 34.246060 3.666300 4.962100 12.261400 -89.314691 6.707418 23.073984 23.320015 -23.430271 -6.309887 1.853728 1.001416 14.574177 -7.125000 0.000000 0.000000 87.927738 -8.258780 43.540724 -21.873197 25.280954 -6.577688 1.153667 0.585071 11.747913 7.125000 0.000000 0.000000 
10.103874 17.901895 50.327334 -177.736915 -2.911083 178.323182 -15.729142 -23.989654 -3.801827 -2.245494 8.523254 24.004268 -3.548836 11.770671 -1.958620 3.140100 -10.918400 -32.005200 23.611730 17.482789 -2.504845 1.931442 -8.421723 25.778273 7.251470 -24.820789 -16.123977 -0.004700 0.442900 -1.217100 3.241614 2.204414 3.790646 -4.940845 0.500465 -12.600416 14.411152 6.460025 34.346396 3.675700 5.059300 12.301800 -89.360174 6.792755 23.770577 23.824158 -23.890851 -6.438779 1.816697 0.901217 13.667590 -7.125000 0.000000 0.000000 87.880276 -8.282420 43.439264 -21.911575 25.314520 -6.597412 1.148699 0.588945 11.858030 7.125000 0.000000 0.000000 
10.104346 17.899179 50.329814 -177.725400 -3.080042 178.212944 -15.742914 -23.937133 -3.737698 -2.248336 8.514541 23.987634 -3.534324 11.737388 -1.900671 3.161200 -10.951500 -32.116400 23.697059 17.535627 -2.344265 1.937247 -8.416903 25.801689 7.291605 -25.016604 -16.465251 -0.010600 0.665100 -1.827600 3.213113 2.168141 3.856363 -4.985501 0.476260 -12.651990 14.385665 6.675141 34.362049 3.687800 5.169300 12.312600 -89.334725 6.831839 24.039136 23.806026 -23.843309 -6.418384 1.721231 0.981857 14.132134 -7.125000 0.000000 0.000000 87.865811 -8.230205 43.480249 -21.895879 25.294697 -6.579856 1.147704 0.591772 11.823248 7.125000 0.000000 0.000000 
10.103402 17.897525 50.327452 -177.658423 -3.489525 178.162327 -15.696075 -24.059780 -3.683756 -2.251535 8.497981 23.947097 -3.484205 11.618458 -1.775448 3.163600 -10.955300 -32.129200 23.800614 17.459457 -2.229067 1.959755 -8.395150 25.792350 7.234484 -24.991899 -16.963964 -0.004900 0.452100 -1.242400 3.317941 2.021982 3.910885 -4.955680 0.406262 -12.612348 14.384139 6.854556 34.397110 3.720500 5.257200 12.330400 -89.368091 6.733807 24.073531 23.888281 -23.913199 -6.448443 1.617107 1.063171 13.755343 -7.125000 0.000000 0.000000 87.775847 -8.202766 43.627820 -21.860774 25.244451 -6.543768 1.152803 0.590698 11.643547 7.125000 0.000000 0.000000 
10.101866 17.895635 50.328751 -177.625204 -3.353937 178.129345 -15.682690 -24.005350 -3.673328 -2.248246 8.508324 23.966037 -3.595129 11.874072 -1.824074 3.376500 -11.281000 -33.233500 23.828695 17.466680 -2.202729 1.961421 -8.389936 25.790120 7.155514 -24.776097 -16.933708 -0.002400 0.315700 -0.867300 3.287165 2.148085 3.887181 -5.038148 0.452787 -12.664163 14.418577 6.933028 34.496084 3.751900 5.307800 12.377100 -89.292736 6.616969 24.049239 23.909046 -23.959366 -6.457748 1.726148 0.962877 13.127005 -7.125000 0.000000 0.000000 87.860059 -8.254701 43.579726 -21.845174 25.224503 -6.525729 1.150823 0.596221 11.542661 7.125000 0.000000 0.000000 
10.101276 17.895517 50.325090 -177.668424 -3.474383 178.120912 -15.738591 -23.996896 -3.648856 -2.245252 8.517548 23.977935 -3.614751 11.924239 -1.739025 3.563200 -11.555200 -34.176200 23.810697 17.382353 -2.159357 1.961831 -8.384343 25.789539 7.178581 -24.850314 -16.994724 -0.001400 0.238800 -0.656100 3.077852 2.195814 3.499862 -5.178908 0.439971 -12.943641 14.537034 6.983241 34.697127 3.795400 5.355100 12.417700 -89.183663 6.873697 24.278558 23.755980 -23.778410 -6.397594 1.621635 1.075650 13.668911 -7.125000 0.000000 0.000000 88.087589 -8.580195 43.486170 -21.810110 25.192739 -6.511297 1.142846 0.605472 11.570680 7.125000 0.000000 0.000000 
10.100095 17.893746 50.322255 -177.736811 -3.569321 178.046781 -15.855409 -24.021607 -3.571689 -2.241647 8.520412 24.005535 -3.496858 11.654681 -1.714274 3.418400 -11.343500 -33.447100 23.739916 17.266689 -2.111459 1.959632 -8.379272 25.794672 7.255004 -25.071198 -17.105547 -0.005100 0.459200 -1.261900 3.156252 2.175418 3.458633 -5.111098 0.436986 -13.018078 14.499949 7.186194 34.747415 3.803600 5.446200 12.412100 -89.259126 6.853848 24.242896 23.726249 -23.754078 -6.379205 1.708385 0.996590 13.485622 -7.125000 0.000000 0.000000 87.992498 -8.661034 43.663546 -21.803092 25.196718 -6.524770 1.133814 0.614781 11.458356 7.125000 0.000000 0.000000 
10.099268 17.893391 50.320602 -177.711176 -3.574210 178.054994 -15.823216 -23.973165 -3.618779 -2.238471 8.522943 24.022118 -3.399118 11.429974 -1.698527 3.310900 -11.182100 -32.896400 23.751161 17.253358 -2.134688 1.963382 -8.380030 25.779213 7.335203 -25.298340 -17.149541 -0.010700 0.668200 -1.836300 3.242948 2.222774 3.387079 -5.082391 0.458950 -13.045980 14.338248 7.351616 34.765699 3.744600 5.517700 12.421100 -89.293157 6.935452 24.259801 23.830584 -23.859035 -6.423593 1.642591 1.042421 13.345520 -7.125000 0.000000 0.000000 87.976582 -8.742888 43.684568 -21.811519 25.213949 -6.537193 1.128387 0.618372 11.461711 7.125000 0.000000 0.000000 
10.097496 17.893864 50.319303 -177.647129 -3.554345 178.091207 -15.739942 -23.894965 -3.687146 -2.235236 8.527855 24.034564 -3.384233 11.395858 -1.700710 3.374900 -11.278500 -33.225100 23.802861 17.270823 -2.170238 1.963138 -8.380597 25.763295 7.317351 -25.220007 -16.992121 -0.006500 0.522500 -1.435800 3.237545 2.312874 3.386196 -5.147868 0.492232 -12.983826 14.179173 7.467653 34.783640 3.689200 5.569400 12.456900 -89.230756 6.979333 24.461336 23.805724 -23.830611 -6.406102 1.699221 0.985051 13.686380 -7.125000 0.000000 0.000000 88.052001 -8.757319 43.526739 -21.790395 25.180578 -6.516313 1.134765 0.610920 11.648335 7.125000 0.000000 0.000000 
